# xmcd
#
# Track frame offsets:
#	150
#	13880
#	27662
#	38555
#	55842
#	69192
#	85470
#	99152
#	111277
#	125635
#	139287
#	154832
#
# Disc length: 2211 seconds
#
# Revision: 1
# Processed by: cddbd v1.5.2PL0 Copyright (c) Steve Scherf et al.
# Submitted via: audiograbber 1.83.01
#
DISCID=a108a10c
DTITLE=Bronco - MultiPistas
DYEAR=2014
DGENRE=Karaoke
TTITLE0=Que No Quede Huella
TTITLE1=Que Te Han Visto Llorar
TTITLE2=Nunca Voy a Olvidarte
TTITLE3=Amigo Bronco
TTITLE4=Con Zapatos de Tacon
TTITLE5=Adoro 
TTITLE6=Sergio Bailador
TTITLE7=Los Castigados
TTITLE8=Oro 
TTITLE9=Pastillas de Amnesia 
TTITLE10=Dos Mujeres Un Camino
TTITLE11=El Sheriff de Chocolate 
EXTD=MultiPistas \nLas de Bronco
EXTT0=
EXTT1=
EXTT2=
EXTT3=
EXTT4=
EXTT5=
EXTT6=
EXTT7=
EXTT8=
EXTT9=
EXTT10=
EXTT11=
PLAYORDER=
